<?xml version="1.0" encoding="UTF-8"?>
<svg width="100pt" height="100pt" version="1.1" viewBox="0 0 100 100" xmlns="http://www.w3.org/2000/svg">
 <path d="m21.77 69.738c-5.7461 6.7891-11.488 13.578-17.238 20.367-1.5195 1.793-1.5586 3.8555-0.082031 5.3125 1.4688 1.4453 3.4492 1.4219 5.2305-0.066407 4.9258-4.1055 9.8477-8.2109 14.773-12.316 2.2422-1.875 4.4922-3.7461 6.8281-5.6914-2.8828-2.9062-5.7031-5.7578-8.5859-8.6602-0.35547 0.40625-0.64453 0.72656-0.92578 1.0547zm40.414 26.605c4.1172-4.6172 3.9258-12.586 0.23438-21.473 0.074219-0.13672 0.16016-0.27734 0.26953-0.42188 8.3516-11.188 16.652-22.41 24.973-33.621l1.1445 1.1445c1.8594 1.8594 4.8711 1.8555 6.7266 0l0.61719-0.61719c1.8555-1.8555 1.8594-4.8672 0-6.7266l-30.777-30.777c-1.8594-1.8555-4.8672-1.8555-6.7266 0l-0.61719 0.61328c-1.8555 1.8555-1.8555 4.8711 0 6.7266l1.582 1.5859c-11.367 8.3125-22.73 16.629-34.121 24.91-0.011719 0.011719-0.027343 0.015625-0.042969 0.023438-9.1133-3.8594-17.461-4.2422-21.941 0.23828-0.51562 0.51953-1.9453 2.1602-0.21484 3.8906l54.781 54.781c1.9219 1.918 3.4961 0.33984 4.1133-0.27734zm-21.176-49.004c-2.3242-1.9023-4.6836-3.6055-7.0352-5.0977 10.09-8.2383 20.172-16.477 30.328-24.77l5.3164 5.3164c-9.5977 8.2305-19.109 16.395-28.609 24.551z" fill-rule="evenodd"/>
</svg>
